<?xml version="1.0" encoding="utf-8"?>
<!-- Generator: Adobe Illustrator 17.1.0, SVG Export Plug-In . SVG Version: 6.00 Build 0)  -->
<!DOCTYPE svg PUBLIC "-//W3C//DTD SVG 1.1//EN" "http://www.w3.org/Graphics/SVG/1.1/DTD/svg11.dtd">
<svg version="1.1" id="Layer_1" xmlns="http://www.w3.org/2000/svg" xmlns:xlink="http://www.w3.org/1999/xlink" x="0px" y="0px"
	 viewBox="0 0 32 32" enable-background="new 0 0 32 32" xml:space="preserve">
<g id="Layer_2" display="none">
	<rect x="-404.6" y="-474" display="inline" fill="#FFFFFF" width="578" height="1198"/>
</g>
<g id="Layer_1_1_" display="none">
	<g display="inline">
		<path fill="none" stroke="#FFFFFF" stroke-miterlimit="10" d="M-75.2,7.5c0-2.3-1.9-4.1-4.1-4.1s-4.1,1.9-4.1,4.1v17.1
			c0,2.3,1.9,4.1,4.1,4.1s4.1-1.9,4.1-4.1V7.5z"/>
		<g>
			<line fill="none" stroke="#FFFFFF" stroke-miterlimit="10" x1="-81.3" y1="19.5" x2="-77.2" y2="19.5"/>
			<line fill="none" stroke="#FFFFFF" stroke-miterlimit="10" x1="-79.3" y1="21.6" x2="-79.3" y2="17.4"/>
		</g>
		<g>
			<path fill="none" stroke="#FFFFFF" stroke-miterlimit="10" d="M-75.3,15.2c3.7,3.5,8.8,5,8.8,5l-8.8-12"/>
		</g>
		<polyline fill="none" stroke="#FFFFFF" stroke-linejoin="round" stroke-miterlimit="10" points="-83.4,22.5 -89.3,15.1 
			-87.8,13.5 -83.3,18.6 		"/>
	</g>
	<g display="inline">
		<polyline fill="none" stroke="#FFFFFF" stroke-miterlimit="10" points="-74.7,7.8 -82.9,16 -74.7,24.2 		"/>
		<polyline fill="none" stroke="#FFFFFF" stroke-miterlimit="10" points="-83.6,7.8 -91.8,16 -83.6,24.2 		"/>
		<polyline fill="none" stroke="#FFFFFF" stroke-miterlimit="10" points="-80.3,24.2 -72.1,16 -80.3,7.8 		"/>
		<polyline fill="none" stroke="#FFFFFF" stroke-miterlimit="10" points="-71.4,24.2 -63.2,16 -71.4,7.8 		"/>
	</g>
	<g display="inline">
		
			<circle fill="none" stroke="#FFFFFF" stroke-linecap="round" stroke-linejoin="bevel" stroke-miterlimit="10" cx="-77.5" cy="16" r="12.3"/>
		<g>
			<polygon fill="none" stroke="#FFFFFF" stroke-linecap="round" stroke-linejoin="bevel" stroke-miterlimit="10" points="
				-79.8,14.9 -74.1,9.1 -75.2,17.1 			"/>
			<polygon fill="none" stroke="#FFFFFF" stroke-linecap="round" stroke-linejoin="bevel" stroke-miterlimit="10" points="
				-75.2,17.1 -80.9,22.9 -79.8,14.9 			"/>
		</g>
	</g>
	<g display="inline">
		<line fill="none" stroke="#FFFFFF" stroke-miterlimit="10" x1="-67" y1="21.3" x2="-88" y2="28.8"/>
		<line fill="none" stroke="#FFFFFF" stroke-miterlimit="10" x1="-88" y1="21.3" x2="-67" y2="28.8"/>
		<path fill="none" stroke="#FFFFFF" stroke-miterlimit="10" d="M-79,16.3c0,0-0.3,3.1-0.7,3.1c-3.1-0.6-3.8-3.5-2.5-5.9
			c1.8-3.1,2.3-5.3,2.3-8.9l4.4,7.7l1.7-3.7c0.3,1,0.6,2,0.9,3c0.4,1.4,1.1,3.2,0.6,4.6c-0.6,1.8-2.7,2.9-4.8,3.2
			C-77.5,19.5-79,16.3-79,16.3z"/>
	</g>
	<g display="inline">
		<path fill="none" stroke="#FFFFFF" stroke-linecap="round" stroke-miterlimit="10" d="M-72.5,16.9c-4.6,0-9.1-7.8-9.1-12.3v0
			c0,0,0,0,0,0c0,0,0,0,0,0v0c0,4.6-4.6,12.3-9.1,12.3c4.6,0,9.1,7.4,9.1,12l0,0C-81.6,24.3-77.1,16.9-72.5,16.9L-72.5,16.9z"/>
		<g>
			<line fill="none" stroke="#FFFFFF" stroke-miterlimit="10" x1="-73.1" y1="7.5" x2="-64.2" y2="7.5"/>
			<line fill="none" stroke="#FFFFFF" stroke-miterlimit="10" x1="-68.6" y1="12" x2="-68.6" y2="3.1"/>
		</g>
	</g>
	<g display="inline">
		<line fill="none" stroke="#FFFFFF" stroke-miterlimit="10" x1="-66.4" y1="4.9" x2="-88.6" y2="27.1"/>
		<line fill="none" stroke="#FFFFFF" stroke-miterlimit="10" x1="-88.6" y1="4.9" x2="-66.4" y2="27.1"/>
	</g>
	<rect x="-93.5" display="inline" fill="none" stroke="#FFFFFF" stroke-miterlimit="10" width="32" height="32"/>
	<g display="inline">
		<path d="M14.2,29.2c-2.6,0-4.6-2.1-4.6-4.6V7.5c0-2.6,2.1-4.6,4.6-4.6s4.6,2.1,4.6,4.6v17.1C18.8,27.1,16.8,29.2,14.2,29.2z
			 M14.2,3.8c-2,0-3.6,1.6-3.6,3.6v17.1c0,2,1.6,3.6,3.6,3.6s3.6-1.6,3.6-3.6V7.5C17.8,5.5,16.2,3.8,14.2,3.8z"/>
		<g>
			<rect x="12.1" y="19" width="4.1" height="1"/>
			<rect x="13.7" y="17.4" width="1" height="4.1"/>
		</g>
		<g>
			<path d="M28.3,21l-1.4-0.4c-0.2-0.1-5.3-1.5-9-5.1l0.7-0.7c2.4,2.3,5.4,3.6,7.1,4.3L18.1,8.8l0.5-0.9L28.3,21z"/>
		</g>
		<path d="M9.7,22.8l-5.9-7.4c-0.2-0.2-0.1-0.5,0-0.7l1.5-1.6C5.4,13,5.6,13,5.7,13C5.9,13,6,13,6.1,13.1l4.5,5.1l-0.8,0.7l-4.1-4.7
			l-0.8,0.9l5.6,7L9.7,22.8z"/>
	</g>
</g>
<g id="Layer_7" display="none">
	<g display="inline">
		<polygon points="10.2,8.2 9.5,7.5 1,16 9.5,24.5 10.2,23.8 2.4,16 		"/>
		<path d="M22.1,16l-5.4-5.4l2.4-2.4l-0.7-0.7L16,9.9l-2.4-2.4l-0.7,0.7l2.4,2.4L9.9,16l5.4,5.4l-2.4,2.4l0.7,0.7l2.4-2.4l2.4,2.4
			l0.7-0.7l-2.4-2.4L22.1,16z M11.3,16l4.7-4.7l4.7,4.7L16,20.7L11.3,16z"/>
		<polygon points="22.5,7.5 21.8,8.2 29.6,16 21.8,23.8 22.5,24.5 31,16 		"/>
	</g>
</g>
<g id="Layer_6" display="none">
	<g display="inline">
		<path d="M12.4,4.6h-0.9H12.4L12.4,4.6L12.4,4.6l-1,0v0c0,4.2-4.4,11.8-8.6,11.8v1c4.4,0,8.6,7.3,8.6,11.5h1
			c0-4.2,4.3-11.5,8.6-11.5v-1C16.7,16.4,12.4,8.8,12.4,4.6z M11.9,25.9c-1.1-3.6-3.8-7.6-6.9-9c3.1-1.4,5.8-5.5,6.9-9.2
			c1.1,3.7,3.8,7.8,6.9,9.2C15.7,18.3,12.9,22.3,11.9,25.9z"/>
		<polygon points="29.3,7 25.4,7 25.4,3.1 24.4,3.1 24.4,7 20.4,7 20.4,8 24.4,8 24.4,12 25.4,12 25.4,8 29.3,8 		"/>
	</g>
</g>
<g id="Layer_5" display="none">
	<g display="inline">
		<polygon points="26.7,21.8 26.4,20.8 16,24.5 5.6,20.8 5.3,21.8 14.5,25.1 5.3,28.4 5.6,29.3 16,25.6 26.4,29.3 26.7,28.4 
			17.5,25.1 		"/>
		<path d="M13.7,19.9l0.1,0c0.3,0,0.7,0,1-1.9c1,1.9,1.4,1.9,1.6,1.9l0.1,0c2-0.3,4.5-1.4,5.2-3.6c0.5-1.4,0-2.9-0.4-4.3
			c-0.1-0.2-0.1-0.4-0.2-0.6c-0.3-1-0.6-2-0.9-3l-0.4-1.2l-1.9,4l-4.8-8.5v1.9c0,3.5-0.5,5.6-2.3,8.6c-0.8,1.4-0.9,3-0.4,4.3
			C11,18.7,12.2,19.5,13.7,19.9z M11.7,13.7c1.5-2.6,2.2-4.6,2.3-7.3l4,7l1.6-3.5c0.2,0.6,0.3,1.1,0.5,1.7c0.1,0.2,0.1,0.4,0.2,0.7
			c0.4,1.2,0.8,2.6,0.4,3.7c-0.6,1.7-2.6,2.6-4.2,2.9c-0.3-0.4-1-1.7-1.6-2.8l-0.8-1.6L14,16.3c-0.1,0.9-0.2,2.1-0.4,2.5
			c-1-0.3-1.8-0.9-2.2-1.7C10.9,16.1,11.1,14.9,11.7,13.7z"/>
	</g>
</g>
<g id="Layer_4" display="none">
	<g display="inline">
		<path d="M16,3.2C9,3.2,3.2,9,3.2,16S9,28.8,16,28.8S28.8,23,28.8,16S23,3.2,16,3.2z M16,27.8C9.5,27.8,4.2,22.5,4.2,16
			S9.5,4.2,16,4.2S27.8,9.5,27.8,16S22.5,27.8,16,27.8z"/>
		<path d="M13.4,14.5l0,0.2l-0.2,0.1l-1.2,8l0.9,0.4l5.7-5.8l0-0.2l0.2-0.1l1.2-8l-0.9-0.4L13.4,14.5z M14.1,15.6l3.3,1.6l-4.1,4.2
			L14.1,15.6z M17.9,16.4l-3.3-1.6l4.1-4.2L17.9,16.4z"/>
	</g>
</g>
<g id="Layer_3">
	<polygon fill="#FFFFFF" points="27.4,5.3 26.7,4.6 16,15.3 5.3,4.6 4.6,5.3 15.3,16 4.6,26.7 5.3,27.4 16,16.7 26.7,27.4 
		27.4,26.7 16.7,16 	"/>
</g>
</svg>
